<svg width="300.10328369140626px" height="100.00000610351562px" xmlns="http://www.w3.org/2000/svg" viewBox="99.94835815429687 24.99999694824219 300.10328369140626 100.00000610351562" style="background: rgba(0, 0, 0, 0);" preserveAspectRatio="xMidYMid"><defs><filter id="editing-hole" x="-100%" y="-100%" width="300%" height="300%"><feFlood flood-color="#000" result="black"></feFlood><feMorphology operator="dilate" radius="2" in="SourceGraphic" result="erode"></feMorphology><feGaussianBlur in="erode" stdDeviation="4" result="blur"></feGaussianBlur><feOffset in="blur" dx="2" dy="2" result="offset"></feOffset><feComposite operator="atop" in="offset" in2="black" result="merge"></feComposite><feComposite operator="in" in="merge" in2="SourceGraphic" result="inner-shadow"></feComposite></filter></defs><g filter="url(#editing-hole)"><g transform="translate(147.78569793701172, 98.73999786376953)"><path d="M13.72-30.63L13.72-30.63Q13.82-30.63 13.82-30.33L13.82-30.33L13.82-30.33Q13.82-30.04 13.72-30.04L13.72-30.04L13.72-30.04Q12.10-30.04 11.37-29.74L11.37-29.74L11.37-29.74Q10.63-29.45 10.36-28.74L10.36-28.74L10.36-28.74Q10.09-28.03 10.09-26.56L10.09-26.56L10.09 1.37L10.09 1.37Q10.09 6.22 7.84 9.09L7.84 9.09L7.84 9.09Q5.59 11.96 1.32 11.96L1.32 11.96L1.32 11.96Q-0.34 11.96-1.30 11.39L-1.30 11.39L-1.30 11.39Q-2.25 10.83-2.25 9.85L-2.25 9.85L-2.25 9.85Q-2.25 9.11-1.81 8.67L-1.81 8.67L-1.81 8.67Q-1.37 8.23-0.59 8.23L-0.59 8.23L-0.59 8.23Q0.24 8.23 0.69 8.60L0.69 8.60L0.69 8.60Q1.13 8.97 1.62 9.70L1.62 9.70L1.62 9.70Q2.06 10.39 2.40 10.68L2.40 10.68L2.40 10.68Q2.74 10.98 3.38 10.98L3.38 10.98L3.38 10.98Q5.15 10.98 6.00 8.94L6.00 8.94L6.00 8.94Q6.86 6.91 6.86 2.40L6.86 2.40L6.86-26.66L6.86-26.66Q6.86-28.13 6.52-28.81L6.52-28.81L6.52-28.81Q6.17-29.50 5.17-29.77L5.17-29.77L5.17-29.77Q4.17-30.04 2.06-30.04L2.06-30.04L2.06-30.04Q1.96-30.04 1.96-30.33L1.96-30.33L1.96-30.33Q1.96-30.63 2.06-30.63L2.06-30.63L4.90-30.58L4.90-30.58Q7.15-30.48 8.43-30.48L8.43-30.48L8.43-30.48Q9.70-30.48 11.56-30.58L11.56-30.58L13.72-30.63ZM36.02-2.65L36.11-2.65L36.11-2.65Q36.31-2.65 36.36-2.43L36.36-2.43L36.36-2.43Q36.41-2.21 36.21-2.11L36.21-2.11L31.16 0.29L31.16 0.29Q30.97 0.39 30.77 0.39L30.77 0.39L30.77 0.39Q30.14 0.39 29.65-0.47L29.65-0.47L29.65-0.47Q29.16-1.32 29.01-2.79L29.01-2.79L26.46-1.13L26.46-1.13Q25.23-0.34 24.30 0L24.30 0L24.30 0Q23.37 0.34 22.34 0.34L22.34 0.34L22.34 0.34Q20.53 0.34 19.53-0.61L19.53-0.61L19.53-0.61Q18.52-1.57 18.52-3.04L18.52-3.04L18.52-3.04Q18.52-4.51 19.70-5.59L19.70-5.59L19.70-5.59Q20.87-6.66 23.57-7.64L23.57-7.64L28.96-9.65L28.96-12.99L28.96-12.99Q28.96-18.47 25.87-18.47L25.87-18.47L25.87-18.47Q24.21-18.47 23.35-17.37L23.35-17.37L23.35-17.37Q22.49-16.27 22.20-14.85L22.20-14.85L22.20-14.85Q22.05-13.96 21.66-13.40L21.66-13.40L21.66-13.40Q21.27-12.84 20.34-12.84L20.34-12.84L20.34-12.84Q19.55-12.84 19.13-13.28L19.13-13.28L19.13-13.28Q18.72-13.72 18.72-14.31L18.72-14.31L18.72-14.31Q18.72-15.48 20.24-16.66L20.24-16.66L20.24-16.66Q21.76-17.84 23.86-18.62L23.86-18.62L23.86-18.62Q25.97-19.40 27.64-19.40L27.64-19.40L27.64-19.40Q29.65-19.40 30.67-18.13L30.67-18.13L30.67-18.13Q31.70-16.86 31.70-14.46L31.70-14.46L31.70-5.29L31.70-5.29Q31.70-3.58 32.14-2.79L32.14-2.79L32.14-2.79Q32.59-2.01 33.61-2.01L33.61-2.01L33.61-2.01Q34.55-2.01 36.02-2.65L36.02-2.65ZM26.90-2.25L28.96-3.48L28.96-3.72L28.96-8.97L24.40-7.20L24.40-7.20Q23.03-6.66 22.42-5.95L22.42-5.95L22.42-5.95Q21.80-5.24 21.80-4.26L21.80-4.26L21.80-4.26Q21.80-3.09 22.56-2.28L22.56-2.28L22.56-2.28Q23.32-1.47 24.55-1.47L24.55-1.47L24.55-1.47Q25.53-1.47 26.90-2.25L26.90-2.25ZM60.56-0.59L60.56-0.59Q60.71-0.59 60.71-0.29L60.71-0.29L60.71-0.29Q60.71 0 60.56 0L60.56 0L60.56 0Q59.44 0 58.80-0.05L58.80-0.05L56.15-0.10L53.46-0.05L53.46-0.05Q52.82 0 51.70 0L51.70 0L51.70 0Q51.55 0 51.55-0.29L51.55-0.29L51.55-0.29Q51.55-0.59 51.70-0.59L51.70-0.59L51.70-0.59Q53.02-0.59 53.66-0.86L53.66-0.86L53.66-0.86Q54.29-1.13 54.51-1.81L54.51-1.81L54.51-1.81Q54.73-2.50 54.73-3.97L54.73-3.97L54.73-11.91L54.73-11.91Q54.73-14.80 53.63-16.17L53.63-16.17L53.63-16.17Q52.53-17.54 50.23-17.54L50.23-17.54L50.23-17.54Q48.71-17.54 47.16-16.73L47.16-16.73L47.16-16.73Q45.62-15.93 44.35-14.50L44.35-14.50L44.35-3.97L44.35-3.97Q44.35-2.50 44.57-1.81L44.57-1.81L44.57-1.81Q44.79-1.13 45.42-0.86L45.42-0.86L45.42-0.86Q46.06-0.59 47.38-0.59L47.38-0.59L47.38-0.59Q47.53-0.59 47.53-0.29L47.53-0.29L47.53-0.29Q47.53 0 47.38 0L47.38 0L47.38 0Q46.26 0 45.62-0.05L45.62-0.05L42.97-0.10L40.28-0.05L40.28-0.05Q39.64 0 38.51 0L38.51 0L38.51 0Q38.37 0 38.37-0.29L38.37-0.29L38.37-0.29Q38.37-0.59 38.51-0.59L38.51-0.59L38.51-0.59Q39.84-0.59 40.47-0.86L40.47-0.86L40.47-0.86Q41.11-1.13 41.33-1.81L41.33-1.81L41.33-1.81Q41.55-2.50 41.55-3.97L41.55-3.97L41.55-13.67L41.55-13.67Q41.55-15.34 41.16-16.07L41.16-16.07L41.16-16.07Q40.77-16.81 39.84-16.81L39.84-16.81L39.84-16.81Q39.05-16.81 37.19-16.07L37.19-16.07L37.09-16.07L37.09-16.07Q36.90-16.07 36.82-16.29L36.82-16.29L36.82-16.29Q36.75-16.51 36.95-16.61L36.95-16.61L42.63-19.31L42.92-19.36L42.92-19.36Q43.37-19.36 43.86-18.23L43.86-18.23L43.86-18.23Q44.35-17.10 44.35-15.34L44.35-15.34L44.35-15.34Q46.21-17.49 48.04-18.52L48.04-18.52L48.04-18.52Q49.88-19.55 51.84-19.55L51.84-19.55L51.84-19.55Q54.59-19.55 56.06-18.03L56.06-18.03L56.06-18.03Q57.53-16.51 57.53-13.57L57.53-13.57L57.53-3.97L57.53-3.97Q57.53-2.50 57.75-1.81L57.75-1.81L57.75-1.81Q57.97-1.13 58.60-0.86L58.60-0.86L58.60-0.86Q59.24-0.59 60.56-0.59L60.56-0.59ZM79.18-2.74L79.23-2.74L79.23-2.74Q79.38-2.74 79.50-2.57L79.50-2.57L79.50-2.57Q79.63-2.40 79.53-2.25L79.53-2.25L79.53-2.25Q76.29 0.59 72.37 0.59L72.37 0.59L72.37 0.59Q69.53 0.59 67.52-0.73L67.52-0.73L67.52-0.73Q65.51-2.06 64.46-4.21L64.46-4.21L64.46-4.21Q63.41-6.37 63.41-8.82L63.41-8.82L63.41-8.82Q63.41-11.71 64.78-14.14L64.78-14.14L64.78-14.14Q66.15-16.56 68.53-17.96L68.53-17.96L68.53-17.96Q70.90-19.36 73.75-19.36L73.75-19.36L73.75-19.36Q76.49-19.36 77.96-17.89L77.96-17.89L77.96-17.89Q79.43-16.41 79.43-13.77L79.43-13.77L79.43-13.77Q79.43-13.08 79.31-12.79L79.31-12.79L79.31-12.79Q79.18-12.50 78.89-12.50L78.89-12.50L66.74-12.45L66.74-12.45Q66.64-11.37 66.64-10.68L66.64-10.68L66.64-10.68Q66.64-6.42 68.65-3.77L68.65-3.77L68.65-3.77Q70.66-1.13 74.28-1.13L74.28-1.13L74.28-1.13Q75.75-1.13 76.81-1.52L76.81-1.52L76.81-1.52Q77.86-1.91 79.18-2.74L79.18-2.74ZM72.13-18.38L72.13-18.38Q70.02-18.38 68.65-16.98L68.65-16.98L68.65-16.98Q67.28-15.58 66.84-13.08L66.84-13.08L76.15-13.28L76.15-13.28Q76.15-15.78 75.07-17.08L75.07-17.08L75.07-17.08Q73.99-18.38 72.13-18.38L72.13-18.38ZM115.79-0.59L115.79-0.59Q115.98-0.54 115.96-0.27L115.96-0.27L115.96-0.27Q115.93 0 115.79 0L115.79 0L110.50 0L110.50 0Q108.29 0 103.78-3.48L103.78-3.48L103.78-3.48Q99.81 0.59 93.88 0.59L93.88 0.59L93.88 0.59Q90.85 0.59 88.81-0.44L88.81-0.44L88.81-0.44Q86.78-1.47 85.77-3.14L85.77-3.14L85.77-3.14Q84.77-4.80 84.77-6.71L84.77-6.71L84.77-6.71Q84.77-9.51 86.51-11.59L86.51-11.59L86.51-11.59Q88.25-13.67 91.53-16.07L91.53-16.07L91.53-16.07Q90.65-17.39 90.11-18.52L90.11-18.52L90.11-18.52Q88.69-21.66 88.69-23.86L88.69-23.86L88.69-23.86Q88.69-25.97 89.72-27.76L89.72-27.76L89.72-27.76Q90.75-29.55 92.61-30.60L92.61-30.60L92.61-30.60Q94.47-31.65 96.82-31.65L96.82-31.65L96.82-31.65Q99.18-31.65 100.87-30.53L100.87-30.53L100.87-30.53Q102.56-29.40 102.56-26.80L102.56-26.80L102.56-26.80Q102.56-24.89 101.60-23.37L101.60-23.37L101.60-23.37Q100.65-21.85 99.25-20.70L99.25-20.70L99.25-20.70Q97.85-19.55 95.50-17.98L95.50-17.98L95.50-17.98Q95.16-17.79 94.47-17.30L94.47-17.30L94.47-17.30Q97.85-11.86 104.91-6.37L104.91-6.37L104.91-6.37Q106.62-9.36 106.62-12.99L106.62-12.99L106.62-12.99Q106.62-14.75 105.91-15.63L105.91-15.63L105.91-15.63Q105.20-16.51 103.15-16.51L103.15-16.51L103.15-16.51Q103.00-16.51 102.97-16.81L102.97-16.81L102.97-16.81Q102.95-17.10 103.15-17.10L103.15-17.10L113.39-17.15L113.39-17.15Q113.58-17.15 113.58-16.86L113.58-16.86L113.58-16.86Q113.58-16.56 113.39-16.56L113.39-16.56L113.39-16.56Q111.72-16.56 110.89-16.24L110.89-16.24L110.89-16.24Q110.05-15.93 109.71-15.39L109.71-15.39L109.71-15.39Q109.37-14.85 109.03-13.67L109.03-13.67L109.03-13.67Q107.60-8.82 105.64-5.83L105.64-5.83L105.64-5.83Q108.54-3.72 111.23-2.35L111.23-2.35L111.23-2.35Q113.93-0.98 115.79-0.59L115.79-0.59ZM91.53-25.97L91.53-25.97Q91.53-22.15 94.08-17.89L94.08-17.89L94.08-17.89Q96.78-19.89 98.22-21.78L98.22-21.78L98.22-21.78Q99.67-23.67 99.67-26.02L99.67-26.02L99.67-26.02Q99.67-28.18 98.51-29.40L98.51-29.40L98.51-29.40Q97.36-30.63 95.40-30.63L95.40-30.63L95.40-30.63Q91.53-30.63 91.53-25.97L91.53-25.97ZM96.09-0.88L96.09-0.88Q100.21-0.88 103.15-3.97L103.15-3.97L102.26-4.70L102.26-4.70Q99.32-7.01 96.60-9.82L96.60-9.82L96.60-9.82Q93.88-12.64 91.92-15.44L91.92-15.44L91.92-15.44Q90.01-13.92 88.96-12.23L88.96-12.23L88.96-12.23Q87.91-10.54 87.91-8.43L87.91-8.43L87.91-8.43Q87.91-6.37 88.96-4.63L88.96-4.63L88.96-4.63Q90.01-2.89 91.90-1.89L91.90-1.89L91.90-1.89Q93.79-0.88 96.09-0.88L96.09-0.88ZM129.51-30.63L129.51-30.63Q129.61-30.63 129.61-30.33L129.61-30.33L129.61-30.33Q129.61-30.04 129.51-30.04L129.51-30.04L129.51-30.04Q127.89-30.04 127.16-29.74L127.16-29.74L127.16-29.74Q126.42-29.45 126.15-28.74L126.15-28.74L126.15-28.74Q125.88-28.03 125.88-26.56L125.88-26.56L125.88 1.37L125.88 1.37Q125.88 6.22 123.63 9.09L123.63 9.09L123.63 9.09Q121.37 11.96 117.11 11.96L117.11 11.96L117.11 11.96Q115.44 11.96 114.49 11.39L114.49 11.39L114.49 11.39Q113.53 10.83 113.53 9.85L113.53 9.85L113.53 9.85Q113.53 9.11 113.97 8.67L113.97 8.67L113.97 8.67Q114.42 8.23 115.20 8.23L115.20 8.23L115.20 8.23Q116.03 8.23 116.47 8.60L116.47 8.60L116.47 8.60Q116.91 8.97 117.40 9.70L117.40 9.70L117.40 9.70Q117.85 10.39 118.19 10.68L118.19 10.68L118.19 10.68Q118.53 10.98 119.17 10.98L119.17 10.98L119.17 10.98Q120.93 10.98 121.79 8.94L121.79 8.94L121.79 8.94Q122.65 6.91 122.65 2.40L122.65 2.40L122.65-26.66L122.65-26.66Q122.65-28.13 122.30-28.81L122.30-28.81L122.30-28.81Q121.96-29.50 120.96-29.77L120.96-29.77L120.96-29.77Q119.95-30.04 117.85-30.04L117.85-30.04L117.85-30.04Q117.75-30.04 117.75-30.33L117.75-30.33L117.75-30.33Q117.75-30.63 117.85-30.63L117.85-30.63L120.69-30.58L120.69-30.58Q122.94-30.48 124.22-30.48L124.22-30.48L124.22-30.48Q125.49-30.48 127.35-30.58L127.35-30.58L129.51-30.63ZM142.88 0.64L142.88 0.64Q140.04 0.64 137.86-0.76L137.86-0.76L137.86-0.76Q135.68-2.16 134.50-4.53L134.50-4.53L134.50-4.53Q133.33-6.91 133.33-9.70L133.33-9.70L133.33-9.70Q133.33-12.89 134.87-15.12L134.87-15.12L134.87-15.12Q136.42-17.35 138.84-18.45L138.84-18.45L138.84-18.45Q141.27-19.55 143.77-19.55L143.77-19.55L143.77-19.55Q146.66-19.55 148.81-18.13L148.81-18.13L148.81-18.13Q150.97-16.71 152.12-14.38L152.12-14.38L152.12-14.38Q153.27-12.05 153.27-9.46L153.27-9.46L153.27-9.46Q153.27-6.42 151.85-4.14L151.85-4.14L151.85-4.14Q150.43-1.86 148.05-0.61L148.05-0.61L148.05-0.61Q145.68 0.64 142.88 0.64L142.88 0.64ZM144.31-0.29L144.31-0.29Q147-0.29 148.47-2.21L148.47-2.21L148.47-2.21Q149.94-4.12 149.94-8.09L149.94-8.09L149.94-8.09Q149.94-11.12 148.94-13.52L148.94-13.52L148.94-13.52Q147.93-15.93 146.17-17.27L146.17-17.27L146.17-17.27Q144.40-18.62 142.15-18.62L142.15-18.62L142.15-18.62Q139.50-18.62 138.06-16.71L138.06-16.71L138.06-16.71Q136.61-14.80 136.61-11.22L136.61-11.22L136.61-11.22Q136.61-8.23 137.59-5.73L137.59-5.73L137.59-5.73Q138.57-3.23 140.34-1.76L140.34-1.76L140.34-1.76Q142.10-0.29 144.31-0.29L144.31-0.29ZM178.41-0.59L178.41-0.59Q178.56-0.59 178.56-0.29L178.56-0.29L178.56-0.29Q178.56 0 178.41 0L178.41 0L178.41 0Q177.28 0 176.60-0.05L176.60-0.05L173.95-0.10L171.30-0.05L171.30-0.05Q170.62 0 169.49 0L169.49 0L169.49 0Q169.34 0 169.34-0.29L169.34-0.29L169.34-0.29Q169.34-0.59 169.49-0.59L169.49-0.59L169.49-0.59Q170.81-0.59 171.45-0.86L171.45-0.86L171.45-0.86Q172.09-1.13 172.33-1.84L172.33-1.84L172.33-1.84Q172.58-2.55 172.58-3.97L172.58-3.97L172.58-11.76L172.58-11.76Q172.58-14.65 171.48-16.05L171.48-16.05L171.48-16.05Q170.37-17.44 168.07-17.44L168.07-17.44L168.07-17.44Q166.55-17.44 164.98-16.64L164.98-16.64L164.98-16.64Q163.41-15.83 162.14-14.41L162.14-14.41L162.14-3.97L162.14-3.97Q162.14-2.55 162.39-1.84L162.39-1.84L162.39-1.84Q162.63-1.13 163.27-0.86L163.27-0.86L163.27-0.86Q163.91-0.59 165.23-0.59L165.23-0.59L165.23-0.59Q165.38-0.59 165.38-0.29L165.38-0.29L165.38-0.29Q165.38 0 165.23 0L165.23 0L165.23 0Q164.10 0 163.41-0.05L163.41-0.05L160.77-0.10L158.12-0.05L158.12-0.05Q157.44 0 156.31 0L156.31 0L156.31 0Q156.16 0 156.16-0.29L156.16-0.29L156.16-0.29Q156.16-0.59 156.31-0.59L156.31-0.59L156.31-0.59Q157.63-0.59 158.27-0.86L158.27-0.86L158.27-0.86Q158.91-1.13 159.15-1.84L159.15-1.84L159.15-1.84Q159.40-2.55 159.40-3.97L159.40-3.97L159.40-29.30L159.40-29.30Q159.40-31.07 159.05-31.85L159.05-31.85L159.05-31.85Q158.71-32.63 157.83-32.63L157.83-32.63L157.83-32.63Q157.09-32.63 155.57-31.95L155.57-31.95L155.48-31.95L155.48-31.95Q155.33-31.95 155.23-32.19L155.23-32.19L155.23-32.19Q155.13-32.44 155.33-32.49L155.33-32.49L161.55-35.52L161.70-35.52L161.70-35.52Q161.90-35.52 162.02-35.40L162.02-35.40L162.02-35.40Q162.14-35.28 162.14-35.13L162.14-35.13L162.14-15.24L162.14-15.24Q164.00-17.39 165.84-18.40L165.84-18.40L165.84-18.40Q167.68-19.40 169.69-19.40L169.69-19.40L169.69-19.40Q172.38-19.40 173.85-17.89L173.85-17.89L173.85-17.89Q175.32-16.37 175.32-13.47L175.32-13.47L175.32-3.97L175.32-3.97Q175.32-2.55 175.57-1.84L175.57-1.84L175.57-1.84Q175.81-1.13 176.45-0.86L176.45-0.86L176.45-0.86Q177.09-0.59 178.41-0.59L178.41-0.59ZM203.74-0.59L203.74-0.59Q203.89-0.59 203.89-0.29L203.89-0.29L203.89-0.29Q203.89 0 203.74 0L203.74 0L203.74 0Q202.62 0 201.98-0.05L201.98-0.05L199.33-0.10L196.64-0.05L196.64-0.05Q196 0 194.87 0L194.87 0L194.87 0Q194.73 0 194.73-0.29L194.73-0.29L194.73-0.29Q194.73-0.59 194.87-0.59L194.87-0.59L194.87-0.59Q196.20-0.59 196.83-0.86L196.83-0.86L196.83-0.86Q197.47-1.13 197.69-1.81L197.69-1.81L197.69-1.81Q197.91-2.50 197.91-3.97L197.91-3.97L197.91-11.91L197.91-11.91Q197.91-14.80 196.81-16.17L196.81-16.17L196.81-16.17Q195.71-17.54 193.40-17.54L193.40-17.54L193.40-17.54Q191.88-17.54 190.34-16.73L190.34-16.73L190.34-16.73Q188.80-15.93 187.52-14.50L187.52-14.50L187.52-3.97L187.52-3.97Q187.52-2.50 187.74-1.81L187.74-1.81L187.74-1.81Q187.96-1.13 188.60-0.86L188.60-0.86L188.60-0.86Q189.24-0.59 190.56-0.59L190.56-0.59L190.56-0.59Q190.71-0.59 190.71-0.29L190.71-0.29L190.71-0.29Q190.71 0 190.56 0L190.56 0L190.56 0Q189.43 0 188.80-0.05L188.80-0.05L186.15-0.10L183.46-0.05L183.46-0.05Q182.82 0 181.69 0L181.69 0L181.69 0Q181.54 0 181.54-0.29L181.54-0.29L181.54-0.29Q181.54-0.59 181.69-0.59L181.69-0.59L181.69-0.59Q183.01-0.59 183.65-0.86L183.65-0.86L183.65-0.86Q184.29-1.13 184.51-1.81L184.51-1.81L184.51-1.81Q184.73-2.50 184.73-3.97L184.73-3.97L184.73-13.67L184.73-13.67Q184.73-15.34 184.34-16.07L184.34-16.07L184.34-16.07Q183.95-16.81 183.01-16.81L183.01-16.81L183.01-16.81Q182.23-16.81 180.37-16.07L180.37-16.07L180.27-16.07L180.27-16.07Q180.07-16.07 180.00-16.29L180.00-16.29L180.00-16.29Q179.93-16.51 180.12-16.61L180.12-16.61L185.81-19.31L186.10-19.36L186.10-19.36Q186.54-19.36 187.03-18.23L187.03-18.23L187.03-18.23Q187.52-17.10 187.52-15.34L187.52-15.34L187.52-15.34Q189.38-17.49 191.22-18.52L191.22-18.52L191.22-18.52Q193.06-19.55 195.02-19.55L195.02-19.55L195.02-19.55Q197.76-19.55 199.23-18.03L199.23-18.03L199.23-18.03Q200.70-16.51 200.70-13.57L200.70-13.57L200.70-3.97L200.70-3.97Q200.70-2.50 200.92-1.81L200.92-1.81L200.92-1.81Q201.14-1.13 201.78-0.86L201.78-0.86L201.78-0.86Q202.42-0.59 203.74-0.59L203.74-0.59Z" fill="#ccc"></path></g></g><style>text {
  font-size: 64px;
  font-family: Arial Black;
  dominant-baseline: central;
  text-anchor: middle;
}</style></svg>